naruto shipudden movie 4 in mp4 format 



Format                           : MPEG-4
Format profile                   : Base Media
Codec ID                         : isom
File size                        : 178 MiB
Duration                         : 1h 25mn
Overall bit rate                 : 293 Kbps
Writing application              : Lavf52.61.0
Comment                          : Converted with PSPVC - http://pspvc.nswardh.com

Video
ID                               : 1
Format                           : AVC
Format/Info                      : Advanced Video Codec
Format profile                   : Baseline@L3.0
Format settings, CABAC           : No
Format settings, ReFrames        : 2 frames
Codec ID                         : avc1
Codec ID/Info                    : Advanced Video Coding
Duration                         : 1h 25mn
Bit rate mode                    : Variable
Bit rate                         : 192 Kbps
Width                            : 480 pixels
Height                           : 268 pixels
Display aspect ratio             : 16:9
Frame rate mode                  : Variable
Frame rate                       : 23.976 fps
Minimum frame rate               : 12.000 fps
Maximum frame rate               : 24.000 fps
Color space                      : YUV
Chroma subsampling               : 4:2:0
Bit depth                        : 8 bits
Scan type                        : Progressive
Bits/(Pixel*Frame)               : 0.062
Stream size                      : 117 MiB (66%)
Writing library                  : x264 core 85 r1442 781d300
Encoding settings                : cabac=0 / ref=2 / deblock=1:0:0 / analyse=0x1:0x131 / me=dia / subme=6 / psy=1 / psy_rd=1.00:0.00 / mixed_ref=0 / me_range=16 / chroma_me=1 / trellis=0 / 8x8dct=0 / cqm=0 / deadzone=21,11 / fast_pskip=1 / chroma_qp_offset=-2 / threads=4 / sliced_threads=0 / nr=0 / decimate=1 / mbaff=0 / constrained_intra=0 / bframes=0 / wpredp=0 / keyint=300 / keyint_min=24 / scenecut=40 / intra_refresh=0 / rc_lookahead=40 / rc=crf / mbtree=1 / crf=26.0 / qcomp=0.60 / qpmin=2 / qpmax=51 / qpstep=4 / ip_ratio=1.41 / aq=1:1.00

Audio
ID                               : 2
Format                           : AAC
Format/Info                      : Advanced Audio Codec
Format profile                   : LC
Codec ID                         : 40
Duration                         : 1h 25mn
Bit rate mode                    : Variable
Bit rate                         : 96.0 Kbps
Channel(s)                       : 2 channels
Channel positions                : Front: L R
Sampling rate                    : 44.1 KHz
Compression mode                 : Lossy
Stream size                      : 58.4 MiB (33%)
